# xmcd
#
# Track frame offsets: 
#        150
#        18717
#        32057
#        51772
#        80687
#        99572
#        127707
#        140800
#        175027
#        186590
#        209912
#
# Disc length: 3204 seconds
#
# Revision: 1
# Processed by: cddbd v1.5.2PL0 Copyright (c) Steve Scherf et al.
# Submitted via: ExactAudioCopy v0.99pb4
#
DISCID=a20c820b
DTITLE=Richmond Fontaine - Lost Son
DYEAR=1999
DGENRE=Rock
TTITLE0=Savior of Time
TTITLE1=Ft. Lewis
TTITLE2=Cascade
TTITLE3=Mule
TTITLE4=Contrails
TTITLE5=Fifteen year old kid in Nogales Mexico
TTITLE6=Pinkerton
TTITLE7=A Girl in a House in Felony Flats
TTITLE8=Muddy Concience
TTITLE9=Four Hours Out
TTITLE10=Hope and Repair
EXTD=
EXTT0=
EXTT1=
EXTT2=
EXTT3=
EXTT4=
EXTT5=
EXTT6=
EXTT7=
EXTT8=
EXTT9=
EXTT10=
PLAYORDER=
